<svg xmlns="http://www.w3.org/2000/svg" viewBox="0 0 1200 1200"><defs><style>.cls-1{fill:#fff;}.cls-2{fill:#82bd23;}.cls-3{fill:#1261a0;}</style></defs><title>cfalogo</title><g id="Layer_5" data-name="Layer 5"><rect class="cls-1" x="-3" y="-3" width="1212" height="1210"/></g><g id="Layer_3" data-name="Layer 3"><path class="cls-2" d="M339,519.846v42l-71,38,71,42v39l-110-68v-25S339.583,519.263,339,519.846Z"/><path class="cls-2" d="M861,684.842v-42l71-38-71-42v-39l110,68v25S860.417,685.426,861,684.842Z"/><rect class="cls-2" x="810.733" y="497.818" width="18" height="203.583" transform="matrix(0.978, 0.207, -0.207, 0.978, 141.529, -156.388)"/><path class="cls-3" d="M449,501,362,688.841h30l18-42.189h76l20,43.194h28ZM422,620.535l28-59.265,25,59.265Z"/><polygon class="cls-3" points="511 501 541 501 588 622 639 501 667 501 589 690 511 501"/><path class="cls-3" d="M695,501.028h27V662.11h51v27.736H694S695,498.361,695,501.028Z"/></g></svg>