<?xml version="1.0" encoding="UTF-8"?>
<svg width="348px" height="348px" viewBox="0 0 348 348" version="1.1" xmlns="http://www.w3.org/2000/svg" xmlns:xlink="http://www.w3.org/1999/xlink">
    <!-- Generator: Sketch 53.2 (72643) - https://sketchapp.com -->
    <title>Artboard Copy 2</title>
    <desc>Created with Sketch.</desc>
    <g id="Artboard-Copy-2" stroke="none" stroke-width="1" fill="none" fill-rule="evenodd">
        <g id="open-boise" transform="translate(24.000000, 24.000000)" fill="#131515">
            <g id="Group">
                <path d="M102,221.264 L102,80 L147.144,80 C154.488,80 161.184,80.648 167.232,81.944 C173.424,83.096 178.752,85.04 183.216,87.776 C187.824,90.368 191.352,93.896 193.8,98.36 C196.392,102.824 197.688,108.296 197.688,114.776 C197.688,121.544 195.96,127.808 192.504,133.568 C189.048,139.328 184.224,143.288 178.032,145.448 L178.032,146.312 C185.808,148.04 192.216,151.712 197.256,157.328 C202.44,162.8 205.032,170.288 205.032,179.792 C205.032,186.848 203.664,192.968 200.928,198.152 C198.192,203.336 194.376,207.656 189.48,211.112 C184.728,214.568 179.04,217.16 172.416,218.888 C165.792,220.472 158.592,221.264 150.816,221.264 L102,221.264 Z M127.056,138.32 L144.984,138.32 C154.92,138.32 162.048,136.52 166.368,132.92 C170.832,129.32 173.064,124.496 173.064,118.448 C173.064,111.536 170.76,106.64 166.152,103.76 C161.544,100.88 154.632,99.44 145.416,99.44 L127.056,99.44 L127.056,138.32 Z M127.056,201.824 L148.224,201.824 C158.592,201.824 166.584,199.952 172.2,196.208 C177.816,192.32 180.624,186.416 180.624,178.496 C180.624,171.008 177.888,165.608 172.416,162.296 C166.944,158.84 158.88,157.112 148.224,157.112 L127.056,157.112 L127.056,201.824 Z" id="Shape" fill-rule="nonzero"></path>
                <path d="M150,277.7736 C220.5702,277.7736 277.7736,220.5702 277.7736,150 C277.7736,79.4292 220.5702,22.22664 150,22.22664 C79.4292,22.22664 22.22658,79.4292 22.22658,150 C22.22658,220.5702 79.4292,277.7736 150,277.7736 Z M150,300 C67.1556,300 0,232.8444 0,150 C0,67.1556 67.1556,0 150,0 C232.8438,0 300,67.1556 300,150 C300,232.8444 232.8438,300 150,300 Z" id="Shape"></path>
            </g>
        </g>
    </g>
</svg>