<?xml version="1.0" encoding="UTF-8" standalone="no"?>
<!DOCTYPE svg PUBLIC "-//W3C//DTD SVG 1.1//EN" "http://www.w3.org/Graphics/SVG/1.1/DTD/svg11.dtd">
<svg width="100%" height="100%" viewBox="0 0 2084 2084" version="1.1" xmlns="http://www.w3.org/2000/svg" xmlns:xlink="http://www.w3.org/1999/xlink" xml:space="preserve" style="fill-rule:evenodd;clip-rule:evenodd;stroke-linejoin:round;stroke-miterlimit:1.41421;">
    <g id="Layer.-1" transform="matrix(4.16667,0,0,4.16667,0,0)">
        <path d="M480,480L20,480L20,20L480,20L480,480ZM0,500L500,500L500,0L0,0L0,500Z" style="fill:rgb(13,161,217);fill-rule:nonzero;"/>
        <path d="M90.391,175.645C105.143,175.645 118.466,173.555 130.356,169.37L132.503,166.728C132.503,156.158 133.163,144.434 134.485,131.552L109.218,133.204C108.666,140.25 107.401,145.205 105.42,148.067C103.438,150.931 100.354,152.36 96.171,152.36C90.665,152.36 86.619,149.47 84.034,143.69C81.445,137.91 80.153,129.214 80.153,117.597C80.153,105.983 81.252,98.111 83.455,93.982C85.657,89.853 89.62,87.789 95.346,87.789C99.528,87.789 102.473,88.726 104.181,90.597C105.887,92.47 106.741,95.36 106.741,99.267C106.741,103.176 106.629,106.562 106.411,109.423L131.842,107.937C132.612,94.506 134.154,82.727 136.466,72.596L135.145,69.294C120.391,66.432 108.83,65 100.465,65C81.858,65 67.545,69.954 57.528,79.863C47.509,89.771 42.5,103.535 42.5,121.148C42.5,138.764 46.794,152.252 55.382,161.607C63.969,170.966 75.638,175.645 90.391,175.645" style="fill:rgb(13,161,217);fill-rule:nonzero;"/>
        <path d="M182.788,93.652C184.714,89.634 188.209,87.625 193.275,87.625C198.338,87.625 201.971,90.597 204.174,96.542C206.375,102.487 207.477,111.653 207.477,124.038C207.477,136.424 206.486,144.681 204.504,148.809C202.523,152.938 198.998,155.003 193.935,155.003C188.871,155.003 185.266,151.976 183.119,145.92C180.972,139.866 179.898,130.644 179.898,118.258C179.898,105.873 180.861,97.673 182.788,93.652M192.284,175.81C208.907,175.81 221.899,170.774 231.257,160.7C240.614,150.626 245.295,136.287 245.295,117.681C245.295,82.562 228.889,65 196.082,65C178.578,65 165.201,69.928 155.953,79.78C146.705,89.634 142.08,103.506 142.08,121.396C142.08,139.288 146.292,152.83 154.714,162.021C163.136,171.215 175.659,175.81 192.284,175.81" style="fill:rgb(13,161,217);fill-rule:nonzero;"/>
        <path d="M296.157,91.422C296.266,88.449 297.423,86.963 299.625,86.963C307.442,86.963 312.808,89.441 315.727,94.395C318.641,99.349 320.103,108.184 320.103,120.9C320.103,133.616 318.616,142.507 315.644,147.57C312.672,152.636 307.606,155.168 300.45,155.168C298.14,155.168 296.571,154.618 295.745,153.515C294.92,152.416 294.506,150.269 294.506,147.075C294.506,125.717 295.056,107.168 296.157,91.422M260.404,155.91C258.918,157.838 256.082,159.13 251.899,159.791L250.578,175.149L274.194,173.828C281.13,173.828 289.882,174.489 300.45,175.81C318.175,175.81 332.184,170.417 342.48,159.626C352.772,148.838 357.921,134.194 357.921,115.698C357.921,82.561 340.47,65.99 305.57,65.99L278.156,66.981C273.64,66.981 265.275,66.816 253.055,66.486L251.57,79.862L253.22,82.174L258.506,81.844C260.046,81.844 261.119,82.479 261.726,83.743C262.33,85.01 262.634,87.351 262.634,90.762L262.634,146.084C262.634,150.709 261.89,153.985 260.404,155.91" style="fill:rgb(13,161,217);fill-rule:nonzero;"/>
        <path d="M450.399,174.984L452.876,172.342C453.974,160.344 455.517,149.003 457.5,138.322L455.517,135.846L434.379,137.333C433.389,144.71 431.737,149.47 429.426,151.617C427.114,153.764 422.378,154.838 415.223,154.838C411.809,154.838 409.634,154.259 408.701,153.103C407.763,151.948 407.296,148.892 407.296,143.938C407.296,138.984 407.35,134.635 407.462,130.892C413.407,130.231 418.221,129.901 421.912,129.901C425.598,129.901 431.516,130.066 439.665,130.396L441.977,111.405L439.995,109.093L421.829,110.084L408.288,109.919L409.278,91.257C409.278,89.387 409.634,88.177 410.352,87.625C411.067,87.075 413.681,86.799 418.196,86.799C422.71,86.799 425.983,87.377 428.022,88.533C430.058,89.689 431.078,92.14 431.078,95.881C431.078,97.314 430.967,99.35 430.747,101.992L453.537,100.505C454.087,90.158 455.353,79.203 457.336,67.642L455.188,65C444.619,66.321 430.967,66.982 414.233,66.982C397.497,66.982 381.313,66.817 365.68,66.486L364.195,79.532L366.176,81.845L370.469,81.514C372.23,81.514 373.415,82.121 374.021,83.331C374.624,84.544 374.929,86.91 374.929,90.432L374.763,145.755C374.763,150.709 374.021,154.205 372.534,156.241C371.048,158.279 368.212,159.627 364.029,160.287L362.544,175.48C375.754,174.378 390.341,173.829 406.305,173.829C417.424,173.829 432.122,174.213 450.399,174.984" style="fill:rgb(13,161,217);fill-rule:nonzero;"/>
        <path d="M203.449,255.443C203.449,257.239 203.046,258.621 202.241,259.588C201.434,260.554 200.272,261.038 198.752,261.038C197.233,261.038 196.105,260.634 195.368,259.829C194.632,259.023 194.171,257.607 193.987,255.582L192.605,255.582C191.777,256.548 190.868,257.975 189.877,259.864C188.887,261.752 188.185,263.363 187.771,264.699C188.231,265.895 189.337,266.909 191.086,267.738C192.836,268.566 194.816,268.981 197.026,268.981C200.571,268.981 204.14,267.23 207.731,263.731C211.323,260.232 213.326,256.548 213.74,252.68L216.572,226.366L217.124,226.021L225.551,226.089L226.38,220.91L225.896,220.426L217.262,220.426L217.884,214.901C218.16,212.737 218.655,211.229 219.369,210.377C220.083,209.525 221.188,209.099 222.684,209.099C224.18,209.099 226.195,210.089 228.728,212.069L230.109,211.862L234.184,202.814L233.908,202.054C231.836,201.363 229.281,201.018 226.241,201.018C221.775,201.018 217.401,202.687 213.118,206.025C208.836,209.365 206.488,213.013 206.074,216.972L205.728,220.288L199.65,221.186L199.098,225.745L199.305,226.089L204.416,226.089L205.176,226.78L203.449,251.714L203.449,255.443Z" style="fill:rgb(13,161,217);fill-rule:nonzero;"/>
        <path d="M249.586,230.269C250.231,228.174 251.106,227.126 252.211,227.126C253.178,227.126 253.856,227.622 254.248,228.612C254.639,229.602 254.836,231.766 254.836,235.104C254.836,238.443 254.559,241.043 254.006,242.909C253.453,244.774 252.557,245.706 251.313,245.706C249.517,245.706 248.619,243.404 248.619,238.799C248.619,235.207 248.941,232.365 249.586,230.269M262.225,247.294C265.633,243.426 267.336,238.292 267.336,231.892C267.336,227.657 266.277,224.422 264.158,222.188C262.041,219.956 258.979,218.838 254.973,218.838C249.355,218.838 244.843,220.727 241.436,224.502C238.028,228.278 236.325,233.297 236.325,239.559C236.325,243.887 237.396,247.225 239.537,249.573C241.678,251.921 244.728,253.096 248.688,253.096C254.305,253.096 258.816,251.162 262.225,247.294" style="fill:rgb(13,161,217);fill-rule:nonzero;"/>
        <path d="M308.018,218.838C306.866,218.838 305.428,219.967 303.702,222.223C301.975,224.479 300.604,227.057 299.592,229.958L299.108,230.027C299.522,227.126 300.166,224.134 301.041,221.048L300.075,219.598C293.444,220.15 288.309,220.427 284.672,220.427L283.844,226.09L285.778,226.09C287.297,226.09 288.057,226.874 288.057,228.439C288.057,230.004 286.836,237.579 284.397,251.161L285.778,252.75C288.403,252.75 290.727,252.393 292.754,251.68C294.78,250.966 295.862,250.125 296,249.159L296.553,244.394C299.454,236.105 302.631,231.961 306.084,231.961C307.604,231.961 308.823,232.422 309.745,233.342L311.057,232.721C311.838,230.649 312.231,228.969 312.231,227.679C312.231,223.719 310.827,220.772 308.018,218.838" style="fill:rgb(13,161,217);fill-rule:nonzero;"/>
        <rect x="42.5" y="232.5" width="117.647" height="5" style="fill:rgb(13,161,217);"/>
        <rect x="339.853" y="232.5" width="117.647" height="5" style="fill:rgb(13,161,217);"/>
        <path d="M396.678,289.417L394.92,307.64L396.678,309.836L402.387,309.836C405.316,309.836 407.181,310.094 407.989,310.607C408.789,311.123 409.193,312.332 409.193,314.228C409.193,319.061 403.189,346.066 391.189,395.253L386.36,395.253C378.451,348.121 374.502,321.912 374.502,316.646C374.502,314.014 375.123,312.366 376.367,311.705C377.611,311.045 381.672,310.277 388.556,309.398L389.872,290.955L388.114,288.978L346.174,290.076C338.412,290.076 328.39,289.932 316.094,289.637L314.336,306.984L315.871,309.18C318.947,309.621 321.396,310.934 323.231,313.129C325.058,315.325 326.632,318.919 327.949,323.895C332.048,339.702 340.686,376.738 353.861,435L414.244,431.266L446.964,321.037C448.28,316.792 449.524,313.901 450.694,312.366C451.865,310.826 453.624,309.693 455.964,308.961L457.5,289.857L430.494,290.076C421.561,290.076 410.29,289.857 396.678,289.417" style="fill:rgb(13,161,217);fill-rule:nonzero;"/>
        <path d="M102.885,375.055L120.229,375.055C129.596,377.985 134.283,383.328 134.283,391.086C134.283,401.774 128.866,407.114 118.033,407.114C107.199,407.114 101.787,403.746 101.787,397.013L102.885,375.055ZM104.859,319.281C105.004,317.231 106.321,316.209 108.813,316.209C123.008,316.209 130.11,321.185 130.11,331.139C130.11,334.651 129.158,338.168 127.258,341.676C125.354,345.193 123.231,347.68 120.889,349.147C117.519,349.147 111.668,348.341 103.322,346.729L104.859,319.281ZM118.256,434.561C160.414,434.561 181.493,419.268 181.493,388.668C181.493,379.884 178.967,373.117 173.919,368.361C168.867,363.6 162.241,359.757 154.045,356.832C168.245,347.316 175.348,336.117 175.348,323.235C175.348,311.964 171.098,303.361 162.61,297.434C154.118,291.504 141.672,288.539 125.281,288.539L83.123,290.076C78.436,290.076 66.067,289.933 46.013,289.637L43.375,307.203L46.013,309.836L53.48,309.399C57.429,309.399 59.406,312.77 59.406,319.504L59.188,397.893C59.188,403.163 58.162,406.895 56.113,409.09C54.063,411.286 50.186,412.899 44.473,413.919L42.5,433.682L82.244,432.147C94.243,432.147 106.248,432.949 118.256,434.561" style="fill:rgb(13,161,217);fill-rule:nonzero;"/>
        <path d="M278.705,321.912C280.313,325.43 281.703,334.213 282.878,348.262L310.107,346.508L309.009,290.733L306.152,287.66L279.584,290.075L210.635,290.075L184.503,287.66L181.651,290.733C181.501,307.425 180.914,326.603 179.892,348.262L207.122,346.508C208.142,334.066 209.609,325.978 211.514,322.246C213.414,318.512 217.295,316.645 223.148,316.645L223.148,395.254C223.148,402.137 221.76,406.782 218.98,409.2C216.197,411.615 210.339,413.189 201.414,413.918L199.655,434.122L243.791,432.145C252.137,432.145 266.992,432.583 288.367,433.462L290.345,412.82L289.247,411.504L278.045,412.164C273.799,412.164 270.835,411.032 269.154,408.759C267.469,406.49 266.628,402.579 266.628,397.012C266.628,367.587 266.992,340.8 267.726,316.645C273.434,316.645 277.093,318.404 278.705,321.912" style="fill:rgb(13,161,217);fill-rule:nonzero;"/>
    </g>
</svg>
