<?xml version="1.0" encoding="UTF-8" standalone="no"?>
<!-- Created with Inkscape (http://www.inkscape.org/) -->

<svg
   xmlns:dc="http://purl.org/dc/elements/1.1/"
   xmlns:cc="http://creativecommons.org/ns#"
   xmlns:rdf="http://www.w3.org/1999/02/22-rdf-syntax-ns#"
   xmlns:svg="http://www.w3.org/2000/svg"
   xmlns="http://www.w3.org/2000/svg"
   xmlns:sodipodi="http://sodipodi.sourceforge.net/DTD/sodipodi-0.dtd"
   xmlns:inkscape="http://www.inkscape.org/namespaces/inkscape"
   version="1.1"
   id="svg46"
   xml:space="preserve"
   width="312.95999"
   height="312.95999"
   viewBox="0 0 312.95999 312.95999"
   sodipodi:docname="stickers.svg"
   inkscape:version="0.92.3 (3ce5693, 2018-03-11)"><metadata
     id="metadata52"><rdf:RDF><cc:Work
         rdf:about=""><dc:format>image/svg+xml</dc:format><dc:type
           rdf:resource="http://purl.org/dc/dcmitype/StillImage" /><dc:title></dc:title></cc:Work></rdf:RDF></metadata><defs
     id="defs50" /><sodipodi:namedview
     pagecolor="#ffffff"
     bordercolor="#666666"
     borderopacity="1"
     objecttolerance="10"
     gridtolerance="10"
     guidetolerance="10"
     inkscape:pageopacity="0"
     inkscape:pageshadow="2"
     inkscape:window-width="1856"
     inkscape:window-height="1050"
     id="namedview48"
     showgrid="false"
     inkscape:zoom="0.75409"
     inkscape:cx="-64.978981"
     inkscape:cy="156.48"
     inkscape:window-x="64"
     inkscape:window-y="30"
     inkscape:window-maximized="1"
     inkscape:current-layer="g54" /><g
     id="g54"
     inkscape:groupmode="layer"
     inkscape:label="3x3__circle__horizontal"
     transform="matrix(1.3333333,0,0,-1.3333333,0,312.96)"><g
       id="g154"
       transform="matrix(0.36824509,0,0,-0.36824509,20.832351,193.86437)"><g
         id="#15b400ff"><path
           id="path119"
           d="M 0,0 H 0.26 C 0.19,0.07 0.06,0.2 0,0.26 Z"
           inkscape:connector-curvature="0"
           style="opacity:1;fill:#15b400" /><path
           id="path121"
           d="m 526.9,0 h 1.1 v 198.6 c -2.11,1 -4.23,2.04 -6.47,2.73 -2.9,0.31 -6.88,-1.51 -8.58,1.9 -1.89,5.79 2.64,11.04 4.63,16.19 1.93,2.48 0.46,5.36 -0.36,7.95 -2.47,7.44 1.98,15.14 -0.56,22.61 0.4,4.61 -5.68,5.33 -6.07,9.56 -0.61,3.13 -2.58,5.75 -3.3,8.84 -0.31,1.2 -1.47,1.9 -2.29,2.74 -0.55,-7.05 -0.29,-14.12 -0.29,-21.19 0.22,-4.09 -2.77,-7.28 -3.69,-11.09 -0.56,-3.25 -0.32,-6.57 -0.33,-9.84 0.34,-9.57 -1.08,-19.37 2.02,-28.63 -20.92,-0.17 -41.85,0.1 -62.78,-0.14 -2.08,-0.03 -4.12,0.4 -6.12,0.93 1.54,1.86 3.34,3.48 4.92,5.31 1.18,3.7 0.46,7.7 0.59,11.53 -0.27,5.87 0.63,11.84 -0.48,17.65 -2.76,3.2 -7.57,4.3 -11.67,4.57 -3.35,-0.76 -2.33,-4.66 -2.58,-7.18 0.35,-12.42 -0.52,-24.87 0.65,-37.24 -0.53,-2.8 -3.01,-4.87 -3.55,-7.72 -2.17,-10.48 -5.51,-20.69 -7.7,-31.16 -0.52,-6.35 -0.58,-12.93 -3.62,-18.72 -2.63,0.79 -3.41,3.63 -4.01,5.99 -1.25,4.96 -0.81,10.14 -1.73,15.15 -0.71,3.97 -3.3,7.47 -3.23,11.61 -0.24,3.24 0.5,6.9 -1.77,9.61 -2.81,3.21 -1.99,7.72 -3.68,11.41 -0.61,1.65 -1.66,3.36 -0.91,5.15 1.51,4.65 2.32,9.98 -0.41,14.37 -2.94,5.18 -9.5,5.51 -14.37,7.85 -1.79,3.79 -0.21,8.34 -1.38,12.35 -1.25,1.78 -3.46,2.73 -5.59,2.14 -0.41,-2.59 -0.76,-5.19 -0.7,-7.82 0.2,-15.35 -0.03,-30.7 0.15,-46.06 0.19,-4.86 -1.45,-9.62 -4.21,-13.59 -2.65,-3.76 -4.78,-7.84 -7.11,-11.8 -7.46,-0.6 -14.95,0.01 -22.42,-0.2 -4.39,0.08 -8.86,-0.51 -13.18,0.45 -1.43,1.85 -1.64,4.33 -2.43,6.48 -1.61,6.03 -6.23,11.15 -6.07,17.65 0,6.03 0.01,12.06 0.05,18.09 -0.02,4.93 1.48,9.84 0.75,14.76 -4.1,5.19 -9.77,9.15 -12.99,15.05 -1.18,2.01 -1.81,4.57 -3.99,5.79 -0.55,-0.46 -1.64,-1.38 -2.19,-1.84 -0.27,-2.94 -0.27,-5.9 -0.25,-8.85 0.15,-5.08 -2.3,-9.82 -2.11,-14.91 0.18,-12.69 -0.01,-25.38 0.15,-38.07 0.28,-7.89 -3.77,-15.09 -4.05,-22.91 -0.19,-3.68 0.26,-7.36 0,-11.03 -0.2,-3.13 -1.79,-5.91 -3.18,-8.64 -3.04,-5.65 -5.54,-11.59 -8.93,-17.05 -2.77,-4.42 -4.5,-9.43 -7.73,-13.57 -3.95,5.84 -5.39,12.92 -9.07,18.91 -2.84,4.53 -4.07,9.8 -6.58,14.5 -3.86,5.91 -0.64,13.21 -2.2,19.7 -1.76,7.24 -2.79,14.66 -2.7,22.12 0.12,11.34 -0.07,22.68 0.13,34.02 0.15,3.86 -0.83,7.61 -1.58,11.36 -0.95,5.03 -0.59,10.57 -3.5,15.03 -4.73,2.3 -10.48,-0.39 -15.32,1.78 -3.22,1.37 -6.33,2.99 -9.48,4.52 -0.7,5.03 0.19,10.15 -0.62,15.17 l -0.91,0.45 c -0.76,-13.76 -0.01,-27.56 -0.29,-41.34 -0.2,-1.45 0.01,-3.38 -1.6,-4.08 -4.41,-2.57 -9.9,-0.59 -14.49,-2.41 -1.4,-2.13 -2.35,-4.51 -3.43,-6.8 -3.84,-0.59 -7.91,0.27 -11.56,-1.29 -3.87,-1.6 -8.12,-2.02 -12.25,-2.23 -2.43,1.15 -4.47,3.36 -7.37,3.15 -5.34,0.67 -11.94,-0.44 -16.16,3.5 -1.3,6.29 -0.22,12.8 -0.53,19.18 -0.31,6.36 0.98,12.95 -0.99,19.13 -3.43,1.21 -6.66,2.87 -9.87,4.56 -2.09,1.21 -4.4,-0.21 -6.46,-0.75 -0.95,-16.43 0.39,-32.94 -0.6,-49.36 -3.49,-0.28 -6.99,-0.15 -10.48,-0.27 -3.73,-0.09 -7.19,-1.78 -10.89,-2.04 -2.64,0.24 -5,1.6 -7.52,2.34 -3.79,1.26 -7.9,0.21 -11.72,1.23 -2.34,2.28 -1.21,6.23 -1.91,9.21 -4.31,0.54 -8.64,0.25 -12.97,0.24 -4.56,-0.18 -8.41,2.59 -12.27,4.62 -0.28,2.01 -0.54,4.02 -0.48,6.06 0.22,11.68 -0.03,23.36 0.16,35.03 -0.02,2.58 0.11,5.2 -0.43,7.74 -0.82,1.49 -2.62,1.83 -3.99,2.6 -3.88,-3.23 -6.84,-7.36 -10.2,-11.08 -2.2,-2.43 -3.65,-5.55 -6.23,-7.62 -4.45,-0.74 -9,-0.16 -13.49,-0.32 -3.46,0.08 -7,-0.41 -10.4,0.39 -5.54,6.28 -13.86,9.25 -19.09,15.84 -1,1.31 -2.33,2.64 -2.25,4.43 C 1.12,267.94 1.9,273.05 0,277.8 V 41.61 c 9.99,-0.22 20,-0.19 29.99,-0.6 14.1,-0.96 28.28,-0.15 42.36,-1.39 11.88,-0.32 23.77,-0.33 35.65,-0.72 11.02,0.47 21.96,-1.57 32.98,-1.4 8.63,-0.69 17.32,-0.12 25.93,-1.06 -0.57,0.93 -1.14,1.85 -1.71,2.78 1.46,1.28 3.05,2.54 5.02,2.87 4.06,0.41 8.76,1.92 11.94,-1.55 3.91,3.31 8.31,5.96 12.5,8.91 4.87,3.19 10.96,2.89 16.29,4.8 2.86,0.89 4.14,3.8 5.95,5.9 3.6,4.75 9.48,7.06 15.13,8.2 3.09,-0.22 6.26,-1.96 7.91,-4.63 0.42,-1.88 0.39,-3.81 0.56,-5.72 4.13,-0.18 5.71,4.3 8.36,6.69 2.96,-0.28 5.94,-0.36 8.91,-0.3 0.06,2.05 0.03,4.09 0.05,6.14 -7.96,-1.68 -15.87,1.68 -23.82,2.05 -2.67,0.18 -5.63,-0.25 -7.84,1.59 -3.23,2.45 -7.48,1.87 -11.18,2.95 -0.07,0.36 -0.2,1.08 -0.26,1.44 3.39,-0.65 6.77,-0.23 9.65,1.77 0.16,-1.07 0.33,-2.14 0.52,-3.2 1.7,1.79 3.21,3.82 5.27,5.24 2.93,0.17 5.14,-2.62 8.04,-3.01 2.93,-0.39 5.06,-2.43 7.04,-4.43 2.55,0.37 4.32,2.29 6.12,3.95 3.91,-1.05 7.89,-2.02 11.98,-1.52 -1.16,-1.83 -2.32,-3.66 -3.32,-5.58 5.06,3.65 8.88,8.92 14.45,11.87 2.94,0.78 5.47,2.43 8.19,3.69 5.79,1.03 10.84,-2.93 16.05,-4.81 4.84,-2.75 10.63,-0.55 15.72,-2.29 3.2,-1.58 5.84,-4.11 9.12,-5.57 6.54,-2.9 13.63,-4.15 20.52,-5.91 4.63,-0.02 8.43,3.52 13.03,4.01 4.07,1.05 8.01,-0.91 12,-1.46 2.63,-0.42 5.06,1.06 7.66,1.17 8.82,-4.3 17,-9.89 24.31,-16.46 2.8,-2.64 6.81,-3.61 9.32,-6.6 2.36,-2.64 4.77,-5.26 7.53,-7.5 3.96,-3.26 8.85,-5.06 13.04,-7.98 2.22,-1.67 5.13,-1.34 7.67,-2.14 5.63,-1.59 10.13,-5.61 15.6,-7.58 6.86,-2.55 13.48,-6.18 20.9,-6.8 7.91,-0.57 14.44,-5.68 22.08,-7.26 8.09,-1.78 15.8,-4.89 23.76,-7.16 2.2,-0.5 4.11,-1.71 5.93,-3 z"
           inkscape:connector-curvature="0"
           style="opacity:1;fill:#15b400" /><path
           id="path123"
           d="m 243.15,37.18 c 0.99,0.1 1.99,0.19 2.99,0.28 0.1,0.75 0.32,2.26 0.43,3.02 0.82,0.09 2.45,0.29 3.27,0.39 -0.36,2.48 -3.46,2.8 -5.25,3.97 -0.07,-1.41 0.47,-2.71 1.05,-3.97 -1,-1.11 -2.31,-2.1 -2.49,-3.69 z"
           inkscape:connector-curvature="0"
           style="opacity:1;fill:#15b400" /><path
           id="path125"
           d="m 243.06,46.63 c 1.67,-0.18 3.35,-0.14 5.02,-0.15 -0.69,2.89 -3.81,3.91 -6.05,5.37 0.3,-1.69 -0.34,-3.92 1.03,-5.22 z"
           inkscape:connector-curvature="0"
           style="opacity:1;fill:#15b400" /><path
           id="path127"
           d="m 255.58,53.65 c 2.35,-0.73 4.82,-0.34 7.23,-0.4 -0.53,1.63 -1.21,3.21 -2.04,4.71 -1.84,-0.39 -3.63,-0.96 -5.39,-1.61 0.08,-0.9 0.15,-1.8 0.2,-2.7 z"
           inkscape:connector-curvature="0"
           style="opacity:1;fill:#15b400" /></g><g
         id="#ffffffff" /><g
         id="#13570aff"><path
           id="path131"
           d="m 263.78,114.67 c 3.68,-5.99 5.12,-13.07 9.07,-18.91 3.23,4.14 4.96,9.15 7.73,13.57 3.39,5.46 5.89,11.4 8.93,17.05 1.39,2.73 2.98,5.51 3.18,8.64 0.26,3.67 -0.19,7.35 0,11.03 0.28,7.82 4.33,15.02 4.05,22.91 -0.16,12.69 0.03,25.38 -0.15,38.07 -0.19,5.09 2.26,9.83 2.11,14.91 -0.02,2.95 -0.02,5.91 0.25,8.85 0.55,0.46 1.64,1.38 2.19,1.84 2.18,-1.22 2.81,-3.78 3.99,-5.79 3.22,-5.9 8.89,-9.86 12.99,-15.05 0.73,-4.92 -0.77,-9.83 -0.75,-14.76 -0.04,-6.03 -0.05,-12.06 -0.05,-18.09 -0.16,-6.5 4.46,-11.62 6.07,-17.65 0.79,-2.15 1,-4.63 2.43,-6.48 4.32,-0.96 8.79,-0.37 13.18,-0.45 7.47,0.21 14.96,-0.4 22.42,0.2 2.33,3.96 4.46,8.04 7.11,11.8 2.76,3.97 4.4,8.73 4.21,13.59 -0.18,15.36 0.05,30.71 -0.15,46.06 -0.06,2.63 0.29,5.23 0.7,7.82 2.13,0.59 4.34,-0.36 5.59,-2.14 1.17,-4.01 -0.41,-8.56 1.38,-12.35 4.87,-2.34 11.43,-2.67 14.37,-7.85 2.73,-4.39 1.92,-9.72 0.41,-14.37 -0.75,-1.79 0.3,-3.5 0.91,-5.15 1.69,-3.69 0.87,-8.2 3.68,-11.41 2.27,-2.71 1.53,-6.37 1.77,-9.61 -0.07,-4.14 2.52,-7.64 3.23,-11.61 0.92,-5.01 0.48,-10.19 1.73,-15.15 0.6,-2.36 1.38,-5.2 4.01,-5.99 3.04,5.79 3.1,12.37 3.62,18.72 2.19,10.47 5.53,20.68 7.7,31.16 0.54,2.85 3.02,4.92 3.55,7.72 -1.17,12.37 -0.3,24.82 -0.65,37.24 0.25,2.52 -0.77,6.42 2.58,7.18 4.1,-0.27 8.91,-1.37 11.67,-4.57 1.11,-5.81 0.21,-11.78 0.48,-17.65 -0.13,-3.83 0.59,-7.83 -0.59,-11.53 -1.58,-1.83 -3.38,-3.45 -4.92,-5.31 2,-0.53 4.04,-0.96 6.12,-0.93 20.93,0.24 41.86,-0.03 62.78,0.14 -3.1,9.26 -1.68,19.06 -2.02,28.63 0.01,3.27 -0.23,6.59 0.33,9.84 0.92,3.81 3.91,7 3.69,11.09 0,7.07 -0.26,14.14 0.29,21.19 0.4,3.44 -0.15,6.77 -2.56,9.37 -0.8,4.72 -1.37,9.61 -1,14.42 -0.08,2.48 -2.89,4.26 -2.26,6.87 0.12,1.12 0.28,2.24 0.47,3.36 -1.88,0.49 -3.78,0.9 -5.69,1.19 0.39,2.07 0.79,4.15 1.08,6.25 -1.45,0.81 -2.91,1.61 -4.38,2.39 -0.23,2.81 -0.02,5.76 -1.25,8.38 -1.1,1.61 -3.67,1.73 -4.31,3.72 1.03,2.85 4.68,4.47 4.47,7.76 -1.07,1.51 -2.57,2.62 -3.93,3.84 -0.08,3.26 -0.49,6.5 -1.21,9.69 -2.53,0.61 -5.12,0.91 -7.64,1.52 -4.52,3.06 -8.21,7.15 -12.37,10.62 -4.39,0.94 -7.02,-3.76 -9.02,-6.89 -2.48,0.04 -5.09,0.53 -7.41,-0.56 -3.95,-1.61 -7.42,-4.92 -11.99,-4.45 -4.73,0.45 -9.69,1.08 -13.83,3.6 -6.86,4.1 -14.98,4.92 -22.63,6.64 -5.37,1.57 -11.01,0.51 -16.48,1.36 -4.9,0.2 -10.74,1.11 -14.61,-2.66 -3.33,-3.05 -7.38,-5.96 -8.65,-10.52 -0.75,-4.33 -0.14,-8.89 -1.8,-13.05 -2.02,-4.55 -1.68,-9.64 -2.54,-14.45 -0.62,-6.42 -3.47,-12.35 -4.17,-18.76 -0.79,-6.58 -3.06,-12.94 -6.54,-18.57 -3.45,-5.34 -7.13,-10.99 -13.01,-13.9 -12.6,-4.23 -26.04,-2.09 -38.85,-0.05 -4.54,0.46 -8.15,3.53 -11.98,5.72 -4.01,3.69 -7.52,8.51 -8.29,14.02 -0.06,8.74 4.21,17.05 10.41,23.03 6.09,8.23 17.85,9.81 23.19,18.76 3.14,6.91 2.49,14.95 0.59,22.11 -2.17,4.23 -4.88,8.25 -8.25,11.63 -5.93,6.76 -11.75,13.62 -17.92,20.17 -2.54,2.69 -6.53,4.14 -10.16,3.82 -4.22,-2.28 -8.92,-4.27 -12.19,-7.86 -0.68,-5.26 0.45,-10.67 -1.09,-15.84 -3.68,-15.06 -9.5,-30.21 -20.36,-41.59 -4.27,-3.73 -8.82,-7.17 -12.72,-11.31 -2.01,-2.05 -4.07,-4.45 -7.11,-4.8 -4.89,-0.83 -8.82,-5.01 -14,-4.4 -7.97,1.36 -15.53,4.3 -22.98,7.33 -5.29,2.63 -11.07,5.99 -13.21,11.84 -1.74,5.96 -3.57,11.96 -3.78,18.22 -0.04,3.71 -2.06,6.91 -4.03,9.9 -5.57,8.55 -9.12,18.17 -13.75,27.22 -2.47,4.76 -4.14,10.17 -8.12,13.95 -4.3,2.55 -10.05,2.79 -14.3,-0.06 C 112.72,384.98 106.32,375 96.55,369.44 87.03,364.88 75.94,368.56 66.22,364.77 59.47,360.76 53.7,355.33 47.9,350.09 39.64,343.41 32,336.03 24.52,328.5 22.45,326.54 20.42,324.37 17.67,323.39 11.76,321.18 5.71,319.32 0,316.59 V 277.8 c 1.9,-4.75 1.12,-9.86 1.26,-14.82 -0.08,-1.79 1.25,-3.12 2.25,-4.43 5.23,-6.59 13.55,-9.56 19.09,-15.84 3.4,-0.8 6.94,-0.31 10.4,-0.39 4.49,0.16 9.04,-0.42 13.49,0.32 2.58,2.07 4.03,5.19 6.23,7.62 3.36,3.72 6.32,7.85 10.2,11.08 1.37,-0.77 3.17,-1.11 3.99,-2.6 0.54,-2.54 0.41,-5.16 0.43,-7.74 -0.19,-11.67 0.06,-23.35 -0.16,-35.03 -0.06,-2.04 0.2,-4.05 0.48,-6.06 3.86,-2.03 7.71,-4.8 12.27,-4.62 4.33,0.01 8.66,0.3 12.97,-0.24 0.7,-2.98 -0.43,-6.93 1.91,-9.21 3.82,-1.02 7.93,0.03 11.72,-1.23 2.52,-0.74 4.88,-2.1 7.52,-2.34 3.7,0.26 7.16,1.95 10.89,2.04 3.49,0.12 6.99,-0.01 10.48,0.27 0.99,16.42 -0.35,32.93 0.6,49.36 2.06,0.54 4.37,1.96 6.46,0.75 3.21,-1.69 6.44,-3.35 9.87,-4.56 1.97,-6.18 0.68,-12.77 0.99,-19.13 0.31,-6.38 -0.77,-12.89 0.53,-19.18 4.22,-3.94 10.82,-2.83 16.16,-3.5 2.9,0.21 4.94,-2 7.37,-3.15 4.13,0.21 8.38,0.63 12.25,2.23 3.65,1.56 7.72,0.7 11.56,1.29 1.08,2.29 2.03,4.67 3.43,6.8 4.59,1.82 10.08,-0.16 14.49,2.41 1.61,0.7 1.4,2.63 1.6,4.08 0.28,13.78 -0.47,27.58 0.29,41.34 l 0.91,-0.45 c 0.81,-5.02 -0.08,-10.14 0.62,-15.17 3.15,-1.53 6.26,-3.15 9.48,-4.52 4.84,-2.17 10.59,0.52 15.32,-1.78 2.91,-4.46 2.55,-10 3.5,-15.03 0.75,-3.75 1.73,-7.5 1.58,-11.36 -0.2,-11.34 -0.01,-22.68 -0.13,-34.02 -0.09,-7.46 0.94,-14.88 2.7,-22.12 1.56,-6.49 -1.66,-13.79 2.2,-19.7 2.51,-4.7 3.74,-9.97 6.58,-14.5 z"
           inkscape:connector-curvature="0"
           style="opacity:1;fill:#13570a" /><path
           id="path133"
           d="m 288.86,280.93 c 4.88,-4.17 11.75,-5.51 18,-4.89 7.27,2.5 15.16,2.77 22.26,5.8 2.61,2.01 4.93,4.39 7.35,6.63 2.51,2.11 2.34,5.69 3.68,8.47 2.57,5.77 5.66,11.57 6,18.01 0.22,4.68 1.46,9.25 1.47,13.94 -0.05,4.71 1.84,9.09 2.79,13.63 0.61,5.72 0.37,11.58 1.88,17.18 2.85,6.5 9.49,11.32 16.67,11.47 5.68,-0.07 11.37,0.38 17.03,-0.24 4.66,0.18 9.34,0.79 14,0.23 8.2,-0.58 15.54,-4.76 23.56,-6.27 3.86,-0.62 7.71,-1.61 11.64,-1.6 7.25,0.88 13.77,4.43 20.06,7.95 -1.8,4.53 -7.73,2.98 -10.27,6.72 -1.34,1.54 -2.09,3.46 -2.93,5.29 -3.59,0.08 -7.31,0.43 -10.4,2.41 -3.61,2.09 -7.7,5.55 -11.98,2.93 -0.86,-3.86 -2.17,-8.25 -6.61,-9.16 -0.98,0.89 -1.95,1.77 -2.92,2.65 -2.86,2.32 -6.35,3.66 -9.27,5.88 -2.75,3.18 -1.87,7.75 -2.31,11.63 -4.47,-0.36 -9.41,-2.12 -13.6,0.26 -2.25,1.03 -1.59,3.79 -2.18,5.75 -2.05,2.69 -5.93,4.05 -6.82,7.58 -0.21,4.32 1.82,8.8 0.23,13.01 -1.92,1.7 -4.9,1.48 -7.28,2.16 0.04,1.23 -0.04,2.51 0.71,3.58 1.66,1.52 3.5,2.9 4.87,4.73 1.45,2.79 -0.94,5.5 -1.31,8.25 0.66,2.22 1.6,4.36 2.05,6.66 -2.91,-0.44 -5.45,-1.97 -8.18,-2.97 -2.75,1.19 -1.9,5.14 -2.95,7.58 -1.68,0.86 -3.21,2.15 -5.09,2.5 -2.32,-0.03 -4.51,-1.45 -5.46,-3.55 1.25,-1.71 2.52,-3.4 3.77,-5.1 -1.18,-2.68 -2.1,-5.46 -3.42,-8.06 -2,-0.64 -4.08,-0.93 -6.11,-1.43 -1.08,-1.81 -2.21,-4.39 -4.76,-4.13 -2.99,0.29 -2.56,4.48 -5.05,5.63 -4.44,2.13 -5.27,7.36 -7.74,11.17 -2.31,3.46 -0.62,7.94 -2.45,11.53 -2.4,3.1 -7.89,2.84 -9.16,7.02 2.87,3.48 4.41,7.85 4.23,12.38 -0.26,5.2 2.25,10.26 0.84,15.45 -4.49,1.88 -10.53,-1.18 -13.96,3 -0.92,6.61 -0.71,13.94 -4.6,19.66 -3.42,1.2 -7.08,1.12 -10.65,1.41 -4.87,1.39 -9.99,2.41 -14.23,5.34 h -3.9 c -1.59,-0.82 -3.23,-1.66 -4.46,-2.97 -0.78,-2.42 -0.98,-4.99 -1.44,-7.48 -2.66,-1.54 -5.7,-2.79 -7.49,-5.43 -1.94,-2.67 -3.51,-5.9 -6.65,-7.38 -4.66,-0.47 -9.93,-0.01 -13.68,-3.4 -3.44,-2.18 -2.79,-6.79 -3.21,-10.29 0.09,-2.31 -1.53,-4.14 -2.1,-6.28 -0.21,-2.97 0.1,-5.98 -0.61,-8.91 -3.12,-0.64 -5.84,1.03 -8.49,2.4 -2.93,1.56 -6.34,1.08 -9.53,1.32 -1.65,3.44 -4.58,5.76 -8.03,7.23 -3.9,1.54 -3.44,7.44 -7.67,8.37 -3.68,1.06 -7.47,-0.05 -11.08,-0.83 -2.65,1.43 -5.03,4.88 -8.37,3.6 -0.92,-2.62 -1.48,-5.92 -4.39,-7.08 -3.56,-2.47 -7.99,-2.13 -12.03,-3 -3.38,-0.72 -5.5,-4.5 -9.13,-4.29 -4.49,0.25 -8.89,1.53 -13.02,3.28 -1.03,2.74 -0.87,7.96 -4.98,7.56 -4.14,-1.21 -8.01,-3.25 -12.26,-4.15 -0.92,-2.09 -1.41,-4.41 -2.69,-6.31 -2.05,-1.67 -5.18,-2.1 -6.37,-4.68 -0.84,-1.48 -1.57,-3.01 -2.33,-4.53 -3.37,-0.86 -6.66,-1.97 -9.96,-3.05 -6.35,-2.02 -12.82,2.73 -19.14,0.26 -4.58,-1.65 -9.28,-2.89 -13.98,-4.1 -3.74,-1.22 -2.87,-5.84 -3,-8.87 0.43,-4.68 -3.39,-7.98 -5.71,-11.57 -2.68,-3.49 -1.94,-8.63 -5.25,-11.72 -3.58,-3.67 -9.18,-2.62 -13.57,-4.56 -0.26,-2.92 -0.57,-5.83 -1.2,-8.7 -0.64,-0.25 -1.92,-0.76 -2.56,-1.02 -2.43,1.83 -4.69,4.45 -8.01,4.37 -3.78,0.24 -7.1,2.64 -10.91,2.58 -2.4,-0.87 -4.53,-2.33 -6.76,-3.55 -3.41,-1.72 -5.01,-5.59 -8.33,-7.42 -3.11,0.81 -5.06,4.17 -7.97,5.68 v -98.69 c 7.82,1.61 14.13,6.66 19.8,12 0.9,0.67 1.09,1.94 0.51,2.89 -1.73,3.27 -4.57,5.93 -5.69,9.52 -0.47,2 -0.46,4.07 -0.54,6.12 1.16,-0.22 3.3,0.57 3.61,-1.12 1.49,-4.42 3.34,-8.71 5.76,-12.7 1.58,0.07 3.34,-0.4 4.75,0.54 2.77,2.99 4.54,6.83 7.77,9.41 6.38,5.28 12.66,10.68 19.1,15.9 3.35,2.65 6.38,5.89 10.4,7.53 5.44,1.15 11.04,-0.2 16.5,0.73 4.86,0.75 9.82,1.47 14.34,3.51 5.8,3.28 11.28,7.29 15.42,12.58 5.38,5.07 11.12,9.95 17.74,13.32 3.81,2.52 8.1,-0.67 11.03,-3.11 3.67,-4 8.72,-7.09 10.64,-12.42 4.26,-10.34 9.12,-20.44 13.17,-30.87 2.38,-5.73 5.58,-11.26 6.5,-17.48 0.91,-9.02 5.81,-17.43 12.53,-23.39 5.41,-3.82 12.21,-5.23 18.72,-5.62 8.94,1.15 16.43,6.72 23.98,11.23 4.15,2.18 5.8,6.84 9.07,9.95 5.73,5.66 7.11,13.99 8.54,21.57 1.2,8.3 3.83,16.35 4.35,24.76 0.69,6.99 -2.33,13.83 -1.17,20.82 0.57,4.75 4.34,9.22 9.17,9.99 4.31,-0.73 8.09,-3.05 11.81,-5.21 12.19,-6.56 22.83,-15.87 30.94,-27.08 3.56,-5.08 8.29,-9.21 11.53,-14.52 2.75,-4.7 6.52,-9.03 7.3,-14.62 1.06,-6.28 1.96,-13.65 -2.17,-19.06 -2.84,-3.93 -4.75,-8.43 -7.56,-12.37 -4.77,-6.07 -12.71,-7.8 -18.51,-12.53 -2.02,-1.57 -1.01,-4.45 -1.31,-6.63 0.21,-6.02 -2.3,-12.48 0.83,-18.1 z"
           inkscape:connector-curvature="0"
           style="opacity:1;fill:#13570a" /></g></g><flowRoot
       xml:space="preserve"
       id="flowRoot177"
       style="font-style:normal;font-variant:normal;font-weight:normal;font-stretch:normal;font-size:40px;line-height:1.25;font-family:'Frutiger Neue LT Pro';-inkscape-font-specification:'Frutiger Neue LT Pro';letter-spacing:0px;word-spacing:0px;fill:#000000;fill-opacity:1;stroke:none"
       transform="matrix(0.75000002,0,0,-0.75000002,0,234.72001)"><flowRegion
         id="flowRegion179"><rect
           id="rect181"
           width="277.15524"
           height="42.435253"
           x="33.152542"
           y="23.869829" /></flowRegion><flowPara
         id="flowPara183">dd</flowPara></flowRoot><text
       xml:space="preserve"
       style="font-style:normal;font-variant:normal;font-weight:normal;font-stretch:normal;font-size:30px;line-height:1.25;font-family:'Frutiger Neue LT Pro';-inkscape-font-specification:'Frutiger Neue LT Pro';letter-spacing:0px;word-spacing:0px;fill:#000000;fill-opacity:1;stroke:none;stroke-width:0.75"
       x="94.484749"
       y="-196.92612"
       id="text187"
       transform="scale(1,-1)"><tspan
         sodipodi:role="line"
         id="tspan185"
         x="94.484749"
         y="-170.37611"
         style="stroke-width:0.75" /></text>
<text
       xml:space="preserve"
       style="font-style:normal;font-variant:normal;font-weight:normal;font-stretch:normal;font-size:28px;line-height:1.25;font-family:'Frutiger Neue LT Pro';-inkscape-font-specification:'Frutiger Neue LT Pro';letter-spacing:0px;word-spacing:0px;fill:#13570a;fill-opacity:1;stroke:none;stroke-width:0.75"
       x="39.168728"
       y="-200.73067"
       id="text191"
       transform="scale(1,-1)"><tspan
         sodipodi:role="line"
         id="tspan189"
         x="39.168728"
         y="-200.73067"
         style="font-size:24px;fill:#13570a;fill-opacity:1;stroke-width:0.75">open cleveland</tspan></text>
</g></svg>