<svg id="Layer_1" data-name="Layer 1" xmlns="http://www.w3.org/2000/svg" xmlns:xlink="http://www.w3.org/1999/xlink" viewBox="0 0 360 360"><defs><style>.cls-1,.cls-4{fill:none;}.cls-2{clip-path:url(#clip-path);}.cls-3{fill:#173d51;}.cls-4{stroke:#3e8fb0;stroke-miterlimit:10;stroke-width:1.46px;}.cls-5{fill:#3e8fb0;}</style><clipPath id="clip-path"><rect class="cls-1" x="20.34" y="120.29" width="319.31" height="120.12"/></clipPath></defs><title>ODD_fullcolor</title><g class="cls-2"><path class="cls-3" d="M234,134.73a11.33,11.33,0,0,1,8.34,3.05,11.45,11.45,0,0,1,.93,1.05l.95-.24a3.07,3.07,0,0,1,.47-2,3.45,3.45,0,0,1,.46-.54l-7-15.26a61.06,61.06,0,0,0-7.9-.5H196.62V121l28.5,13.76Z"/><path class="cls-3" d="M258.64,201.41A3.07,3.07,0,0,1,261.1,200l.82-2V188l-16.47-11.58V199.8l12.73,2.78a3,3,0,0,1,.46-1.17"/><path class="cls-3" d="M204.53,147.65l-7.91-5.57v8.4l7.91-2a3,3,0,0,1,0-.85"/><path class="cls-3" d="M206.3,145.34a3.07,3.07,0,0,1,4.07,1.53l.06.16,2.66-.66V134.73h8l-24.47-11.81v17l8.69,6.11a3.13,3.13,0,0,1,1-.71"/><path class="cls-3" d="M249.18,140.67l2.08,4.55a3.06,3.06,0,0,1,3.8,4l6.86,3.31v-5a35.85,35.85,0,0,0-1.61-11.15l-10,2.51a3.24,3.24,0,0,1-.44,1.08,2.94,2.94,0,0,1-.66.7"/><path class="cls-3" d="M218.51,237.45a3.16,3.16,0,0,1-.84-.83l-.28.07a3.08,3.08,0,0,1-.47,1.37,3.19,3.19,0,0,1-.58.63l.76,1.66h3.69l-.79-2.42a3.12,3.12,0,0,1-1.49-.48"/><path class="cls-3" d="M261.92,206.08a3,3,0,0,1-1.47,0l-7.88,18.66a3.17,3.17,0,0,1,.92,1.15l7.11-1.78a43.53,43.53,0,0,0,1.32-11.33Z"/><path class="cls-3" d="M249.56,146.53a.25.25,0,0,0,0-.07,2.33,2.33,0,0,1,.19-.23l-2.23-4.9a3,3,0,0,1-2.66-1.1l-.64.16a11.34,11.34,0,0,1,1.12,4.12Z"/><path class="cls-3" d="M261.92,172.85l-9.86-21.64a3,3,0,0,1-2.95-3l-3.66-1.77v27.8l16.47,11.58Z"/><path class="cls-3" d="M207.69,189.55a3.06,3.06,0,0,1,1.37,2.32l4,.88V153.66l-4-2.84-.2.13a3.08,3.08,0,0,1-3.61-.82l-8.62,2.15V161l9.21,28.11a3,3,0,0,1,1.86.49"/><path class="cls-3" d="M210.57,148.8a3.47,3.47,0,0,1-.28.76l2.8,2v-3.35Z"/><path class="cls-3" d="M216,233.8a3,3,0,0,1,1,1.16h.07a3,3,0,0,1,.5-1.76,2.92,2.92,0,0,1,.6-.66l-2.17-6.62h-3v-9.06L206,195.19a3,3,0,0,1-3-2.86L196.62,191v4.48l17.28,37.91a3.08,3.08,0,0,1,2.13.46"/><path class="cls-3" d="M250.94,224.08l8-18.93a3.47,3.47,0,0,1-.48-.72l-13-2.83v12.85c0,4-.93,7-2.77,8.75s-4.82,2.71-8.85,2.71H217.9l1.94,5.92a3,3,0,0,1,3.1,1.67l24.69-6.17a3.05,3.05,0,0,1,3.31-3.25"/><path class="cls-3" d="M207.67,194.7l5.42,16.52V194.54l-4.4-1a1.63,1.63,0,0,1-.11.23,3.21,3.21,0,0,1-.91.89"/><path class="cls-3" d="M253.26,228.82a3.07,3.07,0,0,1-3,1.36l-3.51,8.3A21.51,21.51,0,0,0,255,234a19.05,19.05,0,0,0,5-8l-6.27,1.57a2.91,2.91,0,0,1-.46,1.2"/><path class="cls-3" d="M248.24,229l-25,6.24a3.06,3.06,0,0,1-.48,1.34,2.92,2.92,0,0,1-1.06,1l.92,2.81h9.68a52.82,52.82,0,0,0,12.3-1.28l4.06-9.63a3.12,3.12,0,0,1-.43-.46"/><path class="cls-3" d="M253.78,150.76l8.15,17.86V154.45L254,150.62l-.21.14"/><path class="cls-3" d="M249,135.71a3,3,0,0,1,1.17,1.41l9.6-2.39a19.47,19.47,0,0,0-5.9-8.08c-3.45-2.73-8-4.58-13.56-5.55l6.45,14.16a3,3,0,0,1,2.24.45"/><path class="cls-3" d="M203.43,190.43a3.06,3.06,0,0,1,.75-.77l-7.56-23.08v22.58l6.71,1.46c0-.06.06-.13.1-.19"/><path class="cls-3" d="M211.77,234.69a2.88,2.88,0,0,1,.54-.61l-15.69-34.43v40.42l14.64-3.66a3.11,3.11,0,0,1,.51-1.72"/><path class="cls-3" d="M212.65,239a3.39,3.39,0,0,1-.87-.86l-9.06,2.26h12.45l-.43-.94a3,3,0,0,1-2.09-.46"/><path class="cls-3" d="M323.46,178.24l-1,7.19H334l-9.6-7.58a3.06,3.06,0,0,1-.89.39"/><path class="cls-3" d="M283.05,202.88a2.76,2.76,0,0,1-.37.46l9.91,21.73a3.09,3.09,0,0,1,3.18,2.13,3.17,3.17,0,0,1,.13.67l4.31.91a3.09,3.09,0,0,1,2.83-1.26l.57-1.28h-5.69V191.83l-14.41,8.91a3.05,3.05,0,0,1-.46,2.14"/><path class="cls-3" d="M289.9,152.92a3.45,3.45,0,0,1-.39-.53,3.07,3.07,0,0,1-.31-2.28L281.45,144v36.76a3.14,3.14,0,0,1,1-.6Z"/><path class="cls-3" d="M325.64,176.1a3,3,0,0,1-.16.42l9.95,7.85V171.32h-4.35l-5.4,3.34a2.93,2.93,0,0,1,0,1.44"/><path class="cls-3" d="M316.34,236.23a2.94,2.94,0,0,1-.59.12l-.53,4h24.44v-1.44l-21.39-4.52a3.09,3.09,0,0,1-1.93,1.84"/><path class="cls-3" d="M296.63,238.15l-3.2-7a3.06,3.06,0,0,1-3.52-2.07,2.87,2.87,0,0,1-.13-.7l-8.34-1.76v13.74h14.13a2.76,2.76,0,0,1,.11-.69,3.06,3.06,0,0,1,.95-1.51"/><path class="cls-3" d="M317.09,226.24l-.56,4.21a3.05,3.05,0,0,1,1.8,1.91c0,.09,0,.18.06.26l21.27,4.5V226.24Z"/><path class="cls-3" d="M322.49,172.22l.12-.9H318.9l1.92,1.52a3.13,3.13,0,0,1,1.67-.62"/><path class="cls-3" d="M304.64,120.29h-3.45l-.36,1.33.27.22Z"/><path class="cls-3" d="M299.64,230.45l-4.09-.86a3.06,3.06,0,0,1-.57.73l3.25,7.11a2.38,2.38,0,0,1,.38,0l2-4.57a2.91,2.91,0,0,1-1-2.4"/><path class="cls-3" d="M312.47,234.24a3.22,3.22,0,0,1-.13-1.1l-6.79-1.44a3,3,0,0,1-3.32,1.91l-1.92,4.3a3.06,3.06,0,0,1,1.39,2.44h11.75L314,236a3.06,3.06,0,0,1-1.55-1.8"/></g><polygon class="cls-3" points="319.32 120.29 336.85 134.39 339.66 134.39 339.66 120.29 319.32 120.29"/><g class="cls-2"><path class="cls-3" d="M314.46,230.37a1.94,1.94,0,0,1,.33-.07l.53-4.06h-9.79l-.88,2a3,3,0,0,1,1,1.44,1.63,1.63,0,0,1,.07.3l7.23,1.53a3.11,3.11,0,0,1,1.53-1.1"/><path class="cls-3" d="M324.85,173.12l2.9-1.8h-3.38l-.17,1.3a2.62,2.62,0,0,1,.65.5"/><path class="cls-3" d="M309,120.29l-7,3a3,3,0,0,1-2.74,3.86l-5.72,20.92a3,3,0,0,1,1.26,1.19,3.09,3.09,0,0,1,0,3l3.06,2.42V134.39h36.13l-17.52-14.1Z"/><path class="cls-3" d="M290.1,148.59a2.7,2.7,0,0,1,.54-.4,3.07,3.07,0,0,1,.62-.27l5.86-21.42a3.17,3.17,0,0,1-.64-.72l-15,6.58v9.4Z"/><path class="cls-3" d="M283.2,186.1l-1.75,6.43v5.76a3,3,0,0,1,.71.33,2.73,2.73,0,0,1,.59.53l15.17-9.38V188.3l-12.75-2.69a3.3,3.3,0,0,1-.73.36,3.11,3.11,0,0,1-1.24.13"/><path class="cls-3" d="M308.27,185.43h12.47l1-7.25a3,3,0,0,1-.93-.48Z"/><path class="cls-3" d="M284.8,180.26a3,3,0,0,1,1.58,3.81l11.54,2.44v-1.08h7l14.82-9.17a3,3,0,0,1,0-1.81,1.07,1.07,0,0,1,.07-.19l-3.71-2.94H297.92V157l-4.33-3.42a3,3,0,0,1-1.59.35Z"/><path class="cls-3" d="M297.54,121.48a3,3,0,0,1,1-.36l.23-.83H281.45v10.16L296,124.07a3.05,3.05,0,0,1,1.52-2.59"/></g><polygon class="cls-3" points="286.94 217.57 287.22 217.51 281.44 204.85 281.44 218.89 286.93 217.52 286.94 217.57"/><g class="cls-2"><path class="cls-3" d="M288,219.13l-6.51,1.56v4.13l8.7,1.84a3,3,0,0,1,.81-.95Z"/><path class="cls-4" d="M148.84,135.57l9.8,38.88.16.66h12.08v-53h-7.71v39.59l-10-39.59h-12v53h7.72ZM129.51,168H111.36V151.34h16.31v-7.09H111.36v-15h18.15v-7.1H103.2v53h26.31ZM70.73,129.41h7.49a4.92,4.92,0,0,1,3.46,1,4.63,4.63,0,0,1,1,3.39v9.73a4.73,4.73,0,0,1-1,3.44,4.79,4.79,0,0,1-3.45,1H70.73Zm0,25.81h6.75c4.32,0,7.66-1,9.93-3s3.45-5.2,3.45-9.39v-8.34c0-4.2-1.18-7.34-3.5-9.33s-5.66-3-10-3H62.57v53h8.16Zm-26.31,8A4.3,4.3,0,0,1,43,166.43a5.23,5.23,0,0,1-3.8,1.37H34.79a5.25,5.25,0,0,1-3.8-1.37,4.29,4.29,0,0,1-1.41-3.24v-29.1A4.3,4.3,0,0,1,31,130.84a5.28,5.28,0,0,1,3.8-1.36H39.2a5.27,5.27,0,0,1,3.8,1.36h0a4.31,4.31,0,0,1,1.42,3.25Zm-6-41H35.53c-4.47,0-8,1.13-10.41,3.34s-3.7,5.59-3.7,10V161.8c0,4.38,1.25,7.74,3.7,10s5.94,3.34,10.41,3.34h2.94c4.47,0,8-1.12,10.4-3.34s3.7-5.59,3.7-10V135.48c0-4.39-1.24-7.74-3.7-10S42.94,122.16,38.47,122.16Z"/><path class="cls-5" d="M43.31,227.63a4.71,4.71,0,0,1-1,3.43,4.89,4.89,0,0,1-3.47,1H30.37V193.63h8.5a4.41,4.41,0,0,1,3.25,1.17A4.27,4.27,0,0,1,43.31,198Zm4.39-38.39c-2.37-1.89-5.88-2.86-10.42-2.86h-15v53H38.15c4.61,0,8-1,10.07-2.86s3.16-5.14,3.16-9.57V198.67c0-4.31-1.24-7.48-3.68-9.43"/><path class="cls-4" d="M43.31,227.63a4.71,4.71,0,0,1-1,3.43,4.89,4.89,0,0,1-3.47,1H30.37V193.63h8.5a4.41,4.41,0,0,1,3.25,1.17A4.27,4.27,0,0,1,43.31,198Zm4.39-38.39c-2.37-1.89-5.88-2.86-10.42-2.86h-15v53H38.15c4.61,0,8-1,10.07-2.86s3.16-5.14,3.16-9.57V198.67C51.38,194.36,50.14,191.19,47.7,189.24Z"/></g><path class="cls-5" d="M76.63,196.3l4.87,22.85H71.82Zm-4.76-9.92-12.69,53h8.27l2.83-12.94H83l2.76,12.94h8.27l-12.47-53Z"/><g class="cls-2"><path class="cls-4" d="M71.82,219.15l4.81-22.85,4.87,22.85Zm.05-32.77-12.69,53h8.27l2.83-12.94H83l2.76,12.94h8.27l-12.47-53Z"/></g><polygon class="cls-5" points="100.77 186.38 100.77 193.7 112.34 193.7 112.34 239.33 120.41 239.33 120.41 193.7 131.98 193.7 131.98 186.38 100.77 186.38"/><g class="cls-2"><polygon class="cls-4" points="100.77 193.7 112.34 193.7 112.34 239.33 120.41 239.33 120.41 193.7 131.98 193.7 131.98 186.38 100.77 186.38 100.77 193.7"/></g><path class="cls-5" d="M156.2,196.3l4.87,22.85h-9.68Zm-4.75-9.92-12.7,53H147l2.83-12.94h12.76l2.76,12.94h8.27l-12.47-53Z"/><g class="cls-2"><path class="cls-4" d="M151.39,219.15l4.81-22.85,4.87,22.85Zm.06-32.77-12.7,53H147l2.83-12.94h12.76l2.76,12.94h8.27l-12.46-53Z"/></g></svg>