<svg id="Layer_1" data-name="Layer 1" xmlns="http://www.w3.org/2000/svg" viewBox="0 0 360 360"><defs><style>.cls-1{fill:none;}</style></defs><title>ODD_black</title><path d="M225.12,134.73H234a11.33,11.33,0,0,1,8.34,3.05,11.45,11.45,0,0,1,.93,1.05l.95-.24a3.07,3.07,0,0,1,.47-2,3.45,3.45,0,0,1,.46-.54l-7-15.26a60.74,60.74,0,0,0-7.88-.5H196.62V121Z"/><path d="M245.45,199.8l12.73,2.78a3,3,0,0,1,.46-1.17A3.07,3.07,0,0,1,261.1,200l.82-2V188l-16.47-11.58Z"/><path d="M204.53,147.65l-7.91-5.57v8.4l7.91-2A3,3,0,0,1,204.53,147.65Z"/><path d="M206.3,145.34a3.07,3.07,0,0,1,4.07,1.53l.06.16,2.66-.66V134.73h8l-24.47-11.81v17l8.69,6.11A3.13,3.13,0,0,1,206.3,145.34Z"/><path d="M249.84,140a2.94,2.94,0,0,1-.66.7l2.08,4.55a3.06,3.06,0,0,1,3.8,4l6.86,3.31v-5a35.85,35.85,0,0,0-1.61-11.15l-10,2.51A3.24,3.24,0,0,1,249.84,140Z"/><path d="M218.51,237.45a3.16,3.16,0,0,1-.84-.83l-.28.07a3.08,3.08,0,0,1-.47,1.37,3.19,3.19,0,0,1-.58.63l.76,1.66h3.69l-.79-2.42A3.12,3.12,0,0,1,218.51,237.45Z"/><path d="M260.45,206.06l-7.88,18.66a3.17,3.17,0,0,1,.92,1.15l7.11-1.78a43.53,43.53,0,0,0,1.32-11.33v-6.68A3,3,0,0,1,260.45,206.06Z"/><path d="M249.56,146.53a.25.25,0,0,0,0-.07,2.33,2.33,0,0,1,.19-.23l-2.23-4.9a3,3,0,0,1-2.66-1.1l-.64.16a11.34,11.34,0,0,1,1.12,4.12Z"/><path d="M249.11,148.26l-3.66-1.77v27.8l16.47,11.58v-13l-9.86-21.64a3,3,0,0,1-2.95-3Z"/><path d="M213.09,153.66l-4-2.84-.2.13a3.08,3.08,0,0,1-3.61-.82l-8.62,2.15V161l9.21,28.11a3,3,0,0,1,1.86.49,3.06,3.06,0,0,1,1.37,2.32l4,.88Z"/><path d="M213.09,148.17l-2.52.63a3.47,3.47,0,0,1-.28.76l2.8,2Z"/><path d="M217.06,235h.07a3,3,0,0,1,.5-1.76,2.92,2.92,0,0,1,.6-.66l-2.17-6.62h-3v-9.06L206,195.19a3,3,0,0,1-3-2.86L196.62,191v4.48l17.28,37.91a3.08,3.08,0,0,1,2.13.46A3,3,0,0,1,217.06,235Z"/><path d="M219.84,231.83a3,3,0,0,1,3.1,1.67l24.69-6.17a3.05,3.05,0,0,1,3.31-3.25l8-18.93a3.47,3.47,0,0,1-.48-.72l-13-2.83v12.85c0,4-.93,7-2.77,8.75s-4.82,2.71-8.85,2.71H217.9Z"/><path d="M208.58,193.81a3.21,3.21,0,0,1-.91.89l5.42,16.52V194.54l-4.4-1A1.63,1.63,0,0,1,208.58,193.81Z"/><path d="M253.26,228.82a3.07,3.07,0,0,1-3,1.36l-3.51,8.3A21.51,21.51,0,0,0,255,234a19.05,19.05,0,0,0,5-8l-6.27,1.57A2.91,2.91,0,0,1,253.26,228.82Z"/><path d="M248.24,229l-25,6.24a3.06,3.06,0,0,1-.48,1.34,2.92,2.92,0,0,1-1.06,1l.92,2.81h9.68a52.82,52.82,0,0,0,12.3-1.28l4.06-9.63A3.12,3.12,0,0,1,248.24,229Z"/><path d="M253.78,150.76l8.15,17.86V154.45L254,150.62Z"/><path d="M249,135.71a3,3,0,0,1,1.17,1.41l9.6-2.39a19.47,19.47,0,0,0-5.9-8.08c-3.45-2.73-8-4.58-13.56-5.55l6.45,14.16A3,3,0,0,1,249,135.71Z"/><path d="M203.43,190.43a3.06,3.06,0,0,1,.75-.77l-7.56-23.08v22.58l6.71,1.46C203.37,190.56,203.39,190.49,203.43,190.43Z"/><path d="M211.77,234.69a2.88,2.88,0,0,1,.54-.61l-15.69-34.43v40.42l14.64-3.66A3.11,3.11,0,0,1,211.77,234.69Z"/><path d="M212.65,239a3.39,3.39,0,0,1-.87-.86l-9.06,2.26h12.45l-.43-.94A3,3,0,0,1,212.65,239Z"/><path d="M334,185.43l-9.6-7.58a3.06,3.06,0,0,1-.89.39l-1,7.19Z"/><path d="M295.77,227.2a3.17,3.17,0,0,1,.13.67l4.31.91a3.09,3.09,0,0,1,2.83-1.26l.57-1.28h-5.69V191.83l-14.41,8.91a3.05,3.05,0,0,1-.46,2.14,2.76,2.76,0,0,1-.37.46l9.91,21.73A3.09,3.09,0,0,1,295.77,227.2Z"/><path d="M289.9,152.92a3.45,3.45,0,0,1-.39-.53,3.07,3.07,0,0,1-.31-2.28L281.45,144v36.76a3.14,3.14,0,0,1,1-.6Z"/><path d="M325.64,176.1a3,3,0,0,1-.16.42l9.95,7.85V171.32h-4.35l-5.4,3.34A2.93,2.93,0,0,1,325.64,176.1Z"/><path d="M316.34,236.23a2.94,2.94,0,0,1-.59.12l-.53,4h24.44v-1.44l-21.39-4.52A3.09,3.09,0,0,1,316.34,236.23Z"/><path d="M289.91,229.07a2.87,2.87,0,0,1-.13-.7l-8.34-1.76v13.74h14.13a2.76,2.76,0,0,1,.11-.69,3.06,3.06,0,0,1,.95-1.51l-3.2-7A3.06,3.06,0,0,1,289.91,229.07Z"/><path d="M316.53,230.45a3.05,3.05,0,0,1,1.8,1.91c0,.09,0,.18.06.26l21.27,4.5V226.24H317.09Z"/><path d="M322.49,172.22l.12-.9H318.9l1.92,1.52A3.13,3.13,0,0,1,322.49,172.22Z"/><path d="M301.1,121.84l3.54-1.55h-3.45l-.36,1.33Z"/><path d="M299.77,231.52a3.05,3.05,0,0,1-.13-1.07l-4.09-.86a3.06,3.06,0,0,1-.57.73l3.25,7.11a2.38,2.38,0,0,1,.38,0l2-4.57A3.05,3.05,0,0,1,299.77,231.52Z"/><path d="M312.47,234.24a3.22,3.22,0,0,1-.13-1.1l-6.79-1.44a3,3,0,0,1-3.32,1.91l-1.92,4.3a3.06,3.06,0,0,1,1.39,2.44h11.75L314,236A3.09,3.09,0,0,1,312.47,234.24Z"/><polygon points="339.66 134.39 339.66 120.29 319.32 120.29 336.85 134.39 339.66 134.39"/><rect x="319.32" y="120.29" width="20.33"/><path d="M305.53,226.24l-.88,2a3,3,0,0,1,1,1.44,1.63,1.63,0,0,1,.07.3l7.23,1.53a3.11,3.11,0,0,1,1.53-1.1,1.94,1.94,0,0,1,.33-.07l.53-4.06Z"/><path d="M327.75,171.32h-3.38l-.17,1.3a2.62,2.62,0,0,1,.65.5Z"/><path d="M300.62,126.81a3,3,0,0,1-1.32.39l-5.72,20.92a3,3,0,0,1,1.26,1.19,3.09,3.09,0,0,1,0,3l3.06,2.42V134.39h36.13l-17.52-14.1H309l-7,3A3.06,3.06,0,0,1,300.62,126.81Z"/><path d="M290.64,148.19a3.07,3.07,0,0,1,.62-.27l5.86-21.42a3.17,3.17,0,0,1-.64-.72l-15,6.58v9.4l8.65,6.83A2.7,2.7,0,0,1,290.64,148.19Z"/><path d="M297.92,188.3l-12.75-2.69a3.3,3.3,0,0,1-.73.36,3.11,3.11,0,0,1-1.24.13l-1.75,6.43v5.76a3,3,0,0,1,.71.33,2.73,2.73,0,0,1,.59.53l15.17-9.38Z"/><path d="M308.27,185.43h12.47l1-7.25a3,3,0,0,1-.93-.48Z"/><path d="M284.8,180.26a3,3,0,0,1,1.58,3.81l11.54,2.44v-1.08h7l14.82-9.17a3,3,0,0,1,0-1.81,1.07,1.07,0,0,1,.07-.19l-3.71-2.94H297.92V157l-4.33-3.42a3,3,0,0,1-1.59.35Z"/><path d="M296,124.07a3.05,3.05,0,0,1,1.52-2.59,3,3,0,0,1,1-.36l.23-.83H281.45v10.16Z"/><polygon points="286.94 217.57 287.22 217.51 281.44 204.85 281.44 218.89 286.93 217.52 286.94 217.57"/><path d="M281.45,224.82l8.7,1.84a3,3,0,0,1,.81-.95l-3-6.58-6.51,1.56Z"/><path class="cls-1" d="M38.88,194.35H31.1v37h7.7a4.28,4.28,0,0,0,3-.82,4.16,4.16,0,0,0,.82-2.91V198a3.54,3.54,0,0,0-1-2.69A3.68,3.68,0,0,0,38.88,194.35Z"/><polygon class="cls-1" points="160.18 218.42 156.21 199.81 152.29 218.42 160.18 218.42"/><polygon class="cls-1" points="80.6 218.42 76.64 199.81 72.72 218.42 80.6 218.42"/><path d="M249,135.71a3,3,0,0,1,1.17,1.41l9.6-2.39a19.47,19.47,0,0,0-5.9-8.08c-3.45-2.73-8-4.58-13.56-5.55l6.45,14.16A3,3,0,0,1,249,135.71Z"/><path d="M39.2,128.75H34.79a5.92,5.92,0,0,0-4.3,1.57,5,5,0,0,0-1.64,3.76v29.11A5,5,0,0,0,30.49,167a6,6,0,0,0,4.3,1.56H39.2A5.94,5.94,0,0,0,43.5,167a5,5,0,0,0,1.65-3.77V134.08a5,5,0,0,0-1.65-3.76A5.9,5.9,0,0,0,39.2,128.75Zm4.49,34.44a3.53,3.53,0,0,1-1.19,2.71,4.53,4.53,0,0,1-3.3,1.17H34.79a4.51,4.51,0,0,1-3.29-1.17,3.5,3.5,0,0,1-1.19-2.71V134.08a3.53,3.53,0,0,1,1.19-2.71,4.54,4.54,0,0,1,3.29-1.16H39.2a4.57,4.57,0,0,1,3.3,1.16,3.56,3.56,0,0,1,1.19,2.71Z"/><path d="M38.47,121.44H35.53c-4.66,0-8.32,1.18-10.9,3.52s-3.94,5.92-3.94,10.52V161.8c0,4.6,1.33,8.13,3.94,10.51s6.24,3.53,10.9,3.53h2.94c4.65,0,8.32-1.19,10.89-3.53s3.94-5.91,3.94-10.51V135.48c0-4.6-1.32-8.14-3.94-10.52S43.12,121.44,38.47,121.44ZM51.85,161.8c0,4.17-1.17,7.34-3.47,9.43s-5.63,3.15-9.91,3.15H35.53c-4.28,0-7.62-1.06-9.92-3.15s-3.46-5.26-3.46-9.43V135.48c0-4.17,1.16-7.35,3.46-9.44s5.64-3.15,9.92-3.15h2.94c4.28,0,7.62,1.06,9.91,3.15s3.47,5.27,3.47,9.44Z"/><path d="M249.6,146.46a2.33,2.33,0,0,1,.19-.23l-2.23-4.9a3,3,0,0,1-2.66-1.1l-.64.16a11.34,11.34,0,0,1,1.12,4.12l4.18,2A.25.25,0,0,0,249.6,146.46Z"/><path d="M206.3,145.34a3.07,3.07,0,0,1,4.07,1.53l.06.16,2.66-.66V134.73h8l-24.47-11.81v17l8.69,6.11A3.13,3.13,0,0,1,206.3,145.34Z"/><path d="M261.92,172.85l-9.86-21.64a3,3,0,0,1-2.95-3l-3.66-1.77v27.8l16.47,11.58Z"/><path d="M213.09,148.17l-2.52.63a3.47,3.47,0,0,1-.28.76l2.8,2Z"/><path d="M130.24,167.29H112.09V152.07H128.4v-8.55H112.09V130h18.15v-8.55H102.48v54.4h27.76Zm-1.46,7.09H103.93V122.89h24.85v5.64H110.63V145h16.31v5.64H110.63v18.12h18.15Z"/><path d="M71.45,156h6c4.51,0,8-1.09,10.41-3.23s3.7-5.53,3.7-9.93v-8.34c0-4.42-1.27-7.75-3.76-9.88s-6-3.13-10.49-3.13H61.84v54.4h9.61ZM70,174.38H63.3V122.89h14c4.18,0,7.39.94,9.54,2.78s3.25,4.8,3.25,8.78v8.34c0,4-1.08,7-3.21,8.85s-5.3,2.85-9.44,2.85H70Z"/><path d="M82.19,147.47a5.44,5.44,0,0,0,1.24-3.95v-9.73a5.28,5.28,0,0,0-1.24-3.91,5.58,5.58,0,0,0-4-1.2H70v20h8.22A5.47,5.47,0,0,0,82.19,147.47ZM71.45,130.13h6.77a4.39,4.39,0,0,1,3,.79,4.07,4.07,0,0,1,.79,2.87v9.73a4.18,4.18,0,0,1-.81,2.92,4.22,4.22,0,0,1-2.94.81H71.45Z"/><path d="M213.09,153.66l-4-2.84-.2.13a3.08,3.08,0,0,1-3.61-.82l-8.62,2.15V161l9.21,28.11a3,3,0,0,1,1.86.49,3.06,3.06,0,0,1,1.37,2.32l4,.88Z"/><path d="M249.84,140a2.94,2.94,0,0,1-.66.7l2.08,4.55a3.06,3.06,0,0,1,3.8,4l6.86,3.31v-5a35.85,35.85,0,0,0-1.61-11.15l-10,2.51A3.24,3.24,0,0,1,249.84,140Z"/><path d="M208.58,193.81a3.21,3.21,0,0,1-.91.89l5.42,16.52V194.54l-4.4-1A1.63,1.63,0,0,1,208.58,193.81Z"/><path d="M219.84,231.83a3,3,0,0,1,3.1,1.67l24.69-6.17a3.05,3.05,0,0,1,3.31-3.25l8-18.93a3.47,3.47,0,0,1-.48-.72l-13-2.83v12.85c0,4-.93,7-2.77,8.75s-4.82,2.71-8.85,2.71H217.9Z"/><path d="M322.49,172.22l.12-.9H318.9l1.92,1.52A3.13,3.13,0,0,1,322.49,172.22Z"/><path d="M293.59,153.57a3,3,0,0,1-1.59.35l-7.2,26.34a3,3,0,0,1,1.58,3.81l11.54,2.44v-1.08h7l14.82-9.17a3,3,0,0,1,0-1.81,1.07,1.07,0,0,1,.07-.19l-3.71-2.94H297.92V157Z"/><polygon points="286.94 217.57 287.22 217.51 281.44 204.85 281.44 218.89 286.93 217.52 286.94 217.57"/><path d="M334,185.43l-9.6-7.58a3.06,3.06,0,0,1-.89.39l-1,7.19Z"/><path d="M327.75,171.32h-3.38l-.17,1.3a2.62,2.62,0,0,1,.65.5Z"/><path d="M325.64,176.1a3,3,0,0,1-.16.42l9.95,7.85V171.32h-4.35l-5.4,3.34A2.93,2.93,0,0,1,325.64,176.1Z"/><path d="M308.27,185.43h12.47l1-7.25a3,3,0,0,1-.93-.48Z"/><path d="M289.9,152.92a3.45,3.45,0,0,1-.39-.53,3.07,3.07,0,0,1-.31-2.28L281.45,144v36.76a3.14,3.14,0,0,1,1-.6Z"/><path d="M290.64,148.19a3.07,3.07,0,0,1,.62-.27l5.86-21.42a3.17,3.17,0,0,1-.64-.72l-15,6.58v9.4l8.65,6.83A2.7,2.7,0,0,1,290.64,148.19Z"/><path d="M295.77,227.2a3.17,3.17,0,0,1,.13.67l4.31.91a3.09,3.09,0,0,1,2.83-1.26l.57-1.28h-5.69V191.83l-14.41,8.91a3.05,3.05,0,0,1-.46,2.14,2.76,2.76,0,0,1-.37.46l9.91,21.73A3.09,3.09,0,0,1,295.77,227.2Z"/><path d="M281.45,224.82l8.7,1.84a3,3,0,0,1,.81-.95l-3-6.58-6.51,1.56Z"/><path d="M297.92,188.3l-12.75-2.69a3.3,3.3,0,0,1-.73.36,3.11,3.11,0,0,1-1.24.13l-1.75,6.43v5.76a3,3,0,0,1,.71.33,2.73,2.73,0,0,1,.59.53l15.17-9.38Z"/><path d="M149.57,141.43l8.36,33.19.3,1.22h13.38v-54.4h-9.17v34.48l-8.75-34.48h-13.3v54.4h9.18Zm-1.46,32.95h-6.26V122.89h10.71l11.33,44.7v-44.7h6.26v51.49H159.37L148.11,129.7Z"/><path d="M253.26,228.82a3.07,3.07,0,0,1-3,1.36l-3.51,8.3A21.51,21.51,0,0,0,255,234a19.05,19.05,0,0,0,5-8l-6.27,1.57A2.91,2.91,0,0,1,253.26,228.82Z"/><path d="M248.24,229l-25,6.24a3.06,3.06,0,0,1-.48,1.34,2.92,2.92,0,0,1-1.06,1l.92,2.81h9.68a52.82,52.82,0,0,0,12.3-1.28l4.06-9.63A3.12,3.12,0,0,1,248.24,229Z"/><path d="M260.45,206.06l-7.88,18.66a3.17,3.17,0,0,1,.92,1.15l7.11-1.78a43.53,43.53,0,0,0,1.32-11.33v-6.68A3,3,0,0,1,260.45,206.06Z"/><path d="M218.51,237.45a3.16,3.16,0,0,1-.84-.83l-.28.07a3.08,3.08,0,0,1-.47,1.37,3.19,3.19,0,0,1-.58.63l.76,1.66h3.69l-.79-2.42A3.12,3.12,0,0,1,218.51,237.45Z"/><path d="M245.45,199.8l12.73,2.78a3,3,0,0,1,.46-1.17A3.07,3.07,0,0,1,261.1,200l.82-2V188l-16.47-11.58Z"/><path d="M211.77,234.69a2.88,2.88,0,0,1,.54-.61l-15.69-34.43v40.42l14.64-3.66A3.11,3.11,0,0,1,211.77,234.69Z"/><path d="M217.06,235h.07a3,3,0,0,1,.5-1.76,2.92,2.92,0,0,1,.6-.66l-2.17-6.62h-3v-9.06L206,195.19a3,3,0,0,1-3-2.86L196.62,191v4.48l17.28,37.91a3.08,3.08,0,0,1,2.13.46A3,3,0,0,1,217.06,235Z"/><path d="M212.65,239a3.39,3.39,0,0,1-.87-.86l-9.06,2.26h12.45l-.43-.94A3,3,0,0,1,212.65,239Z"/><path d="M203.43,190.43a3.06,3.06,0,0,1,.75-.77l-7.56-23.08v22.58l6.71,1.46C203.37,190.56,203.39,190.49,203.43,190.43Z"/><path d="M204.53,147.65l-7.91-5.57v8.4l7.91-2A3,3,0,0,1,204.53,147.65Z"/><path d="M289.91,229.07a2.87,2.87,0,0,1-.13-.7l-8.34-1.76v13.74h14.13a2.76,2.76,0,0,1,.11-.69,3.06,3.06,0,0,1,.95-1.51l-3.2-7A3.06,3.06,0,0,1,289.91,229.07Z"/><path d="M253.78,150.76l8.15,17.86V154.45L254,150.62Z"/><path d="M299.77,231.52a3.05,3.05,0,0,1-.13-1.07l-4.09-.86a3.06,3.06,0,0,1-.57.73l3.25,7.11a2.38,2.38,0,0,1,.38,0l2-4.57A3.05,3.05,0,0,1,299.77,231.52Z"/><path d="M305.53,226.24l-.88,2a3,3,0,0,1,1,1.44,1.63,1.63,0,0,1,.07.3l7.23,1.53a3.11,3.11,0,0,1,1.53-1.1,1.94,1.94,0,0,1,.33-.07l.53-4.06Z"/><path d="M312.47,234.24a3.22,3.22,0,0,1-.13-1.1l-6.79-1.44a3,3,0,0,1-3.32,1.91l-1.92,4.3a3.06,3.06,0,0,1,1.39,2.44h11.75L314,236A3.09,3.09,0,0,1,312.47,234.24Z"/><path d="M317.09,226.24l-.56,4.21a3.05,3.05,0,0,1,1.8,1.91c0,.09,0,.18.06.26l21.27,4.5V226.24Z"/><path d="M316.34,236.23a2.94,2.94,0,0,1-.59.12l-.53,4h24.44v-1.44l-21.39-4.52A3.09,3.09,0,0,1,316.34,236.23Z"/><path d="M47.25,189.81c-2.25-1.79-5.6-2.7-10-2.7H23V238.6H38.15c4.42,0,7.64-.9,9.58-2.67s2.92-4.82,2.92-9V198.67C50.65,194.6,49.5,191.62,47.25,189.81ZM44,227.63a5.39,5.39,0,0,1-1.26,4,5.56,5.56,0,0,1-4,1.24H29.65V192.9h9.23a5.09,5.09,0,0,1,3.75,1.38A5,5,0,0,1,44,198Z"/><path d="M48.16,188.67h0c-2.51-2-6.17-3-10.88-3H21.58v54.4H38.15c4.8,0,8.35-1,10.56-3.06s3.39-5.46,3.39-10.1V198.67C52.1,194.13,50.78,190.77,48.16,188.67Zm3.22,38.23c0,4.43-1.06,7.65-3.16,9.57s-5.46,2.86-10.07,2.86H22.3v-53h15c4.54,0,8,1,10.42,2.86s3.68,5.12,3.68,9.43Z"/><path d="M38.87,193.63h-8.5v38.46H38.8a4.89,4.89,0,0,0,3.47-1,4.71,4.71,0,0,0,1-3.43V198a4.27,4.27,0,0,0-1.19-3.21A4.41,4.41,0,0,0,38.87,193.63Zm3.71,34a4.16,4.16,0,0,1-.82,2.91,4.28,4.28,0,0,1-3,.82H31.1v-37h7.78a3.68,3.68,0,0,1,2.73,1,3.54,3.54,0,0,1,1,2.69Z"/><path d="M47.7,189.24c-2.37-1.89-5.88-2.86-10.42-2.86h-15v53H38.15c4.61,0,8-1,10.07-2.86s3.16-5.14,3.16-9.57V198.67C51.38,194.36,50.14,191.19,47.7,189.24Zm2.95,37.66c0,4.21-1,7.25-2.92,9s-5.16,2.67-9.58,2.67H23V187.11H37.28c4.37,0,7.72.91,10,2.7s3.4,4.79,3.4,8.86Z"/><path d="M38.88,192.9H29.65v39.92H38.8a5.56,5.56,0,0,0,4-1.24,5.39,5.39,0,0,0,1.26-4V198a5,5,0,0,0-1.41-3.73A5.09,5.09,0,0,0,38.88,192.9Zm4.43,34.73a4.71,4.71,0,0,1-1,3.43,4.89,4.89,0,0,1-3.47,1H30.37V193.63h8.5a4.41,4.41,0,0,1,3.25,1.17A4.27,4.27,0,0,1,43.31,198Z"/><path d="M72.45,187.11,60.1,238.6h6.76l2.83-12.94H83.63l2.76,12.94h6.76L81,187.11Zm-1.53,32.76,5.71-27.08,5.77,27.08Z"/><path d="M81.5,219.15,76.63,196.3l-4.81,22.85Zm-4.86-19.34,4,18.61H72.72Z"/><path d="M71.3,185.66l-13,54.4H68l2.84-12.95H82.45l2.76,12.95H95l-12.81-54.4Zm14.5,53.67L83,226.39H70.28l-2.83,12.94H59.18l12.69-53H81.6l12.47,53Z"/><path d="M70.92,219.87H82.4l-5.77-27.08Zm10.58-.72H71.82l4.81-22.85Z"/><path d="M71.87,186.38l-12.69,53h8.27l2.83-12.94H83l2.76,12.94h8.27l-12.47-53ZM86.39,238.6l-2.76-12.94H69.69L66.86,238.6H60.1l12.35-51.49H81L93.15,238.6Z"/><polygon points="113.06 238.6 119.69 238.6 119.69 192.97 131.25 192.97 131.25 187.11 101.5 187.11 101.5 192.97 113.06 192.97 113.06 238.6"/><path d="M100,194.43h11.57v45.63h9.53V194.43h11.57v-8.77H100Zm.73-8.05H132v7.32H120.41v45.63h-8.07V193.7H100.77Z"/><path d="M112.34,239.33h8.07V193.7H132v-7.32H100.77v7.32h11.57ZM101.5,193v-5.86h29.75V193H119.68V238.6h-6.61V193Z"/><path d="M152,187.11,139.67,238.6h6.77l2.83-12.94H163.2L166,238.6h6.76L160.6,187.11Zm-1.53,32.76,5.71-27.08L162,219.87Z"/><path d="M150.87,185.66l-13.05,54.4h9.79l2.83-12.95H162l2.76,12.95h9.78l-12.81-54.4Zm14.5,53.67-2.76-12.94H149.85L147,239.33h-8.27l12.7-53h9.72l12.47,53Z"/><path d="M161.07,219.15,156.2,196.3l-4.81,22.85Zm-4.86-19.34,4,18.61h-7.89Z"/><path d="M151.45,186.38l-12.7,53H147l2.83-12.94h12.76l2.76,12.94h8.27l-12.47-53ZM166,238.6l-2.76-12.94H149.27l-2.83,12.94h-6.77L152,187.11h8.58l12.12,51.49Z"/><path d="M150.49,219.87H162l-5.77-27.08Zm10.58-.72h-9.68l4.81-22.85Z"/></svg>